<?xml version="1.0" encoding="UTF-8"?>
<svg version="1.1" xmlns="http://www.w3.org/2000/svg" width="32" height="17">
<path d="M0 0 C2.6875 0.875 2.6875 0.875 5 2 C5 3.98 5 5.96 5 8 C5.66 8 6.32 8 7 8 C7 8.66 7 9.32 7 10 C9.97 10 12.94 10 16 10 C16.38218767 11.65614657 16.71395102 13.32457024 17 15 C16 16 16 16 13.13256836 16.11352539 C11.88096924 16.10828857 10.62937012 16.10305176 9.33984375 16.09765625 C8.34314415 16.09553383 8.34314415 16.09553383 7.3263092 16.09336853 C5.19666101 16.08775518 3.06711661 16.07520054 0.9375 16.0625 C-0.50325369 16.05748671 -1.94400903 16.05292351 -3.38476562 16.04882812 C-6.92321102 16.03778145 -10.46159539 16.02050792 -14 16 C-14.38218767 14.34385343 -14.71395102 12.67542976 -15 11 C-14 10 -14 10 -11.93359375 9.90234375 C-10.69802734 9.91974609 -10.69802734 9.91974609 -9.4375 9.9375 C-8.61121094 9.94652344 -7.78492188 9.95554687 -6.93359375 9.96484375 C-6.29550781 9.97644531 -5.65742188 9.98804688 -5 10 C-5 9.34 -5 8.68 -5 8 C-4.34 7.67 -3.68 7.34 -3 7 C-3.061875 6.21625 -3.12375 5.4325 -3.1875 4.625 C-3.125625 3.75875 -3.06375 2.8925 -3 2 C-2.01 1.34 -1.02 0.68 0 0 Z " fill="#C03C2E" transform="translate(15,1)"/>
<path d="M0 0 C2.6875 0.875 2.6875 0.875 5 2 C5 3.98 5 5.96 5 8 C5.66 8 6.32 8 7 8 C7 8.99 7 9.98 7 11 C3.04 11 -0.92 11 -5 11 C-5 10.01 -5 9.02 -5 8 C-4.34 7.67 -3.68 7.34 -3 7 C-3.061875 6.21625 -3.12375 5.4325 -3.1875 4.625 C-3.125625 3.75875 -3.06375 2.8925 -3 2 C-2.01 1.34 -1.02 0.68 0 0 Z " fill="#D0842F" transform="translate(15,1)"/>
<path d="M0 0 C0.99 0.33 1.98 0.66 3 1 C3 3.31 3 5.62 3 8 C1.68 8 0.36 8 -1 8 C-1.04241723 5.66705225 -1.04092937 3.33297433 -1 1 C-0.67 0.67 -0.34 0.34 0 0 Z " fill="#E8B23E" transform="translate(15,1)"/>
<path d="M0 0 C2.97 0 5.94 0 9 0 C9 0.33 9 0.66 9 1 C7.02 1.33 5.04 1.66 3 2 C2.67 3.32 2.34 4.64 2 6 C1.01 5.67 0.02 5.34 -1 5 C-0.67 3.35 -0.34 1.7 0 0 Z " fill="#B04A3A" transform="translate(1,11)"/>
</svg>
